<?xml version="1.0" encoding="UTF-8" standalone="no"?>
<!-- Created with Inkscape (http://www.inkscape.org/) -->

<svg
   version="1.1"
   id="svg1"
   width="201.88976"
   height="201.88976"
   viewBox="0 0 201.88976 201.88976"
   sodipodi:docname="capes_round.svg"
   inkscape:version="1.3.2 (091e20e, 2023-11-25, custom)"
   xmlns:inkscape="http://www.inkscape.org/namespaces/inkscape"
   xmlns:sodipodi="http://sodipodi.sourceforge.net/DTD/sodipodi-0.dtd"
   xmlns="http://www.w3.org/2000/svg"
   xmlns:svg="http://www.w3.org/2000/svg">
  <defs
     id="defs1" />
  <sodipodi:namedview
     id="namedview1"
     pagecolor="#505050"
     bordercolor="#eeeeee"
     borderopacity="1"
     inkscape:showpageshadow="0"
     inkscape:pageopacity="0"
     inkscape:pagecheckerboard="0"
     inkscape:deskcolor="#505050"
     inkscape:zoom="1.2069581"
     inkscape:cx="184.34774"
     inkscape:cy="79.953064"
     inkscape:window-width="1920"
     inkscape:window-height="1009"
     inkscape:window-x="2552"
     inkscape:window-y="-8"
     inkscape:window-maximized="1"
     inkscape:current-layer="g1" />
  <g
     inkscape:groupmode="layer"
     inkscape:label="Image"
     id="g1"
     transform="translate(-15.05512,15.44488)">
    <path
       id="path7-8-4"
       style="fill:#000000;fill-opacity:1;stroke:#000000;stroke-width:1.88976;stroke-linejoin:bevel;paint-order:stroke markers fill"
       d="M 116.00043 -14.499567 A 100 100 0 0 0 16.000433 85.500433 A 100 100 0 0 0 116.00043 185.50043 A 100 100 0 0 0 216.00043 85.500433 A 100 100 0 0 0 116.00043 -14.499567 z M 109.81879 35.637151 C 119.09762 35.801462 130.76184 38.634745 145.27582 45.115667 C 95.146105 39.668724 107.94692 69.5669 115.05512 96.404729 L 80.418401 91.502386 C 73.956975 68.515359 76.680135 35.05033 109.81879 35.637151 z M 123.66059 54.375433 A 17.362766 13.294014 34.213801 0 1 136.00239 58.059026 A 17.362766 13.294014 34.213801 0 1 142.8852 78.814886 A 17.362766 13.294014 34.213801 0 1 121.05317 80.047308 A 17.362766 13.294014 34.213801 0 1 114.17035 59.289495 A 17.362766 13.294014 34.213801 0 1 123.66059 54.375433 z M 148.87543 57.11762 C 200.21719 106.41555 120.53028 141.31627 99.371526 142.24848 L 80.314886 93.986761 C 133.797 108.46269 161.62419 88.324051 148.87543 57.11762 z " />
  </g>
</svg>
